<svg xmlns="http://www.w3.org/2000/svg" aria-hidden="true" style="position:absolute;width:0;height:0;overflow:hidden">
<defs>
<symbol id="icon-logo" viewBox="0 0 32 32">
<path d="M10.137 9.063c-3.102 2.54-5.765 4.861-5.936 5.105-.44.611 0 1.466.757 1.466.318 0 1.686-.953 3.347-2.369 1.539-1.27 3.933-3.273 5.325-4.397l2.492-2.076 5.521 4.421c3.029 2.443 5.716 4.421 5.96 4.421.44 0 .977-.66.977-1.197 0-.342-12.116-10.04-12.531-10.04-.171 0-2.834 2.101-5.911 4.666z"/><path d="M11.432 13.362c-.244.073-.635.708-.953 1.563-.611 1.686-.831 1.905-1.05 1.075-.122-.44-.318-.611-.782-.611-1.148 0-.977 1.099.244 1.539.171.073.073.464-.269 1.099-.464.806-.562 1.392-.562 3.053 0 1.515.098 2.15.342 2.369.195.147.391.733.44 1.295l.073 1.026h2.198l.073-1.026.073-1.05h9.722l.073 1.05.073 1.026h2.198l.073-.977c.049-.537.244-1.075.44-1.173.269-.147.342-.757.342-2.565 0-1.979-.098-2.467-.489-2.98-.635-.831-.611-1.148.147-1.319.879-.22.733-1.221-.195-1.319-.537-.073-.708.049-.831.562-.195.806-.366.611-1.05-1.148-.391-.928-.708-1.417-1.075-1.514-.611-.171-8.623-.147-9.258.024zm9.38 2.149c.22.66.342 1.295.269 1.392-.049.122-2.296.195-4.983.195-5.472 0-5.227.098-4.47-1.881l.415-1.05 4.177.049 4.177.073.415 1.221zm-8.989 4.349c.489.415.66.708.562 1.002-.147.342-.415.391-1.563.342-1.27-.073-1.417-.122-1.49-.635-.049-.318-.024-.733.049-.928.22-.537 1.637-.415 2.443.22zm11.017.415v.855l-1.49.073c-1.857.098-2.198-.342-1.002-1.295.562-.44 1.026-.611 1.637-.562.806.073.855.122.855.928z"/>
</symbol>

<symbol id="icon-light" viewBox="0 0 32 32"><path d="M14.171 1.371c-1.168.432-2.235 1.092-2.235 1.422 0 .483.483.457 1.651-.127 1.625-.838 3.2-.838 4.851 0 .711.356 1.321.533 1.448.406.356-.356 0-.736-1.143-1.321-1.321-.686-3.352-.838-4.571-.381z"/><path d="M14.502 3.302c-1.067.457-1.346.787-1.016 1.194.254.279.381.279.889-.051.33-.203 1.067-.381 1.625-.381s1.295.178 1.625.381c.508.33.635.33.889.025.686-.838-2.54-1.778-4.013-1.168zM15.01 5.308c-.584.381-.051.787.99.787s1.575-.406.99-.787c-.203-.127-.635-.229-.99-.229s-.787.102-.99.229z"/><path d="M2.971 6.552c-.584.635-.533 1.397.076 1.956.356.33.508.787.508 1.575 0 2.616 2.159 4.114 4.317 2.997.99-.508 1.346-1.219 1.524-2.921l.152-1.397 2.463 2.438 2.463 2.413v8.686c0 8.508 0 8.686.508 8.686s.508-.178.508-8.508c0-6.908-.076-8.66-.356-9.219-.203-.381-1.346-1.651-2.54-2.844L10.41 8.255l-3.378-.127c-3.149-.127-3.352-.152-3.352-.635s.203-.508 2.921-.584c3.784-.102 4.419.152 6.857 2.616 2.463 2.463 2.616 2.463 5.079 0 2.438-2.463 3.073-2.717 6.857-2.616 2.717.076 2.921.102 2.921.584s-.203.508-3.352.635l-3.378.127-2.184 2.159c-1.194 1.194-2.337 2.463-2.54 2.844-.279.559-.356 2.311-.356 9.219 0 8.33 0 8.508.508 8.508s.508-.178.508-8.686v-8.686l2.463-2.413 2.463-2.438.152 1.397c.178 1.702.533 2.413 1.524 2.921 2.159 1.117 4.317-.381 4.317-2.997 0-.787.152-1.244.508-1.575.635-.584.66-1.448.051-1.981-.381-.356-1.067-.432-3.962-.432-4.19 0-4.343.051-7.06 2.743l-1.981 1.956-1.956-1.956c-2.743-2.692-2.895-2.743-7.136-2.743-3.098 0-3.581.051-3.937.457zm5.613 3.658c-.152 1.549-.813 2.235-2.133 2.235-1.27 0-1.879-.736-1.879-2.286v-1.27h4.14l-.127 1.321zm18.845-.051c0 1.549-.61 2.286-1.879 2.286-1.321 0-1.981-.686-2.133-2.235l-.127-1.321h4.14v1.27zM1.956 13.156c-.457.33-.584.559-.432.813.178.305.305.305.864 0 .66-.33.864-.864.457-1.117-.127-.076-.508.076-.889.305z"/><path d="M9.981 13.079c-.152.406.559 1.117 1.117 1.143.61 0 .635-.584.051-1.041-.736-.584-.965-.584-1.168-.102zM20.902 13.156c-.406.305-.508.533-.356.787.203.305.33.305.914-.076.635-.406.762-.914.229-1.092-.127-.025-.483.127-.787.381zM29.054 13.079c-.178.406.508 1.117 1.067 1.143.66 0 .533-.711-.178-1.117-.686-.406-.762-.406-.889-.025zM3.708 14.832c-.508.787-.508 1.067-.076 1.244.203.076.533-.178.762-.584.356-.584.381-.762.076-.99-.254-.229-.432-.152-.762.33zM27.479 14.527c-.356.432.406 1.702.914 1.549.432-.152.381-.61-.152-1.295-.381-.508-.508-.533-.762-.254zM8.279 14.679c-.229.381.787 1.397 1.219 1.244.406-.152.406-.203 0-.813-.406-.635-.965-.838-1.219-.432zM22.502 15.111c-.406.61-.406.66 0 .813.432.152 1.448-.864 1.219-1.244-.254-.406-.813-.203-1.219.432zM6.095 15.746c0 .508.127.762.381.762s.381-.254.381-.762-.127-.762-.381-.762-.381.254-.381.762zM25.143 15.746c0 .508.127.762.381.762s.381-.254.381-.762-.127-.762-.381-.762-.381.254-.381.762zM4.775 24.736C2.692 27.733.965 30.349.864 30.552a.394.394 0 0 0 .229.508c.229.076 1.6-1.676 4.216-5.46 3.454-4.952 4.19-6.324 3.403-6.298-.102.025-1.879 2.463-3.937 5.435zM22.959 19.657c-.203.533 7.492 11.581 7.949 11.403a.395.395 0 0 0 .229-.508c-.254-.635-7.644-11.225-7.848-11.251-.102 0-.254.152-.33.356z"/></symbol>
<symbol id="icon-service" viewBox="0 0 32 32"><path d="M4.364.407c-.553.204-1.047.553-1.105.785-.029.233.727 1.193 1.687 2.153C6.691 5.09 6.982 5.701 6.342 6.341s-1.222.378-3.025-1.425c-1.135-1.135-1.978-1.745-2.24-1.629C.466 3.52-.087 6.138.146 7.563c.495 2.938 3.316 5.324 6.313 5.295 1.425 0 1.629.087 2.793 1.193l1.222 1.193-5.062 5.12C1.107 24.699.321 25.629.147 26.56c-.611 3.287 2.473 6.138 5.644 5.207 1.367-.436 3.782-2.822 3.316-3.287-.262-.262-.669-.029-1.716.844-.727.669-1.775 1.28-2.298 1.396-2.182.407-4.189-1.658-3.782-3.898.145-.815.931-1.804 3.695-4.625 1.949-1.978 3.665-3.578 3.84-3.578.407 0 4.538 4.131 4.538 4.538 0 .175-.32.611-.727.989-.553.524-.64.756-.378 1.076.262.349.698.029 2.415-1.658l2.065-2.036 1.193 1.222c1.105 1.164 1.193 1.367 1.309 3.2.087 1.6.262 2.211.989 3.2.96 1.396 2.618 2.444 4.276 2.705 1.338.233 3.956-.349 4.189-.931.116-.262-.495-1.105-1.629-2.24-1.396-1.396-1.804-2.007-1.716-2.531.058-.465.32-.727.785-.785.524-.087 1.135.32 2.531 1.716 1.135 1.135 1.978 1.745 2.24 1.629.582-.233 1.193-2.88.931-4.189-.611-3.258-3.055-5.382-6.255-5.382h-1.687l-3.956-4.015 3.462-3.491c2.88-2.88 3.636-3.491 4.364-3.491.495 0 1.018-.116 1.193-.233s.96-1.425 1.716-2.938l1.367-2.735-1.164-1.135L29.762-.06l-2.735 1.367c-1.513.756-2.822 1.542-2.938 1.716s-.233.727-.233 1.193c0 .727-.582 1.455-3.491 4.364l-3.491 3.491-2.007-2.007-2.007-1.978-.116-2.007c-.087-1.629-.262-2.211-.989-3.229C11.29 2.152 10.33 1.308 9.66.93 8.176.115 5.762-.146 4.365.406zM8.378 1.6c2.298.989 3.258 2.502 3.258 5.149v1.833l2.182 2.182c2.211 2.211 2.211 2.211 1.6 2.764-.582.524-.611.524-1.978-.815-1.105-1.076-1.455-1.309-1.745-1.018s-.058.64 1.018 1.745c1.338 1.367 1.338 1.396.815 1.978-.553.611-.553.611-2.764-1.6l-2.182-2.182h-1.92c-1.513 0-2.124-.145-2.909-.669C1.92 9.745.844 7.418 1.28 5.643l.204-.756 1.571 1.484c1.804 1.687 2.967 1.949 4.131.844 1.164-1.076.902-2.327-.815-4.16-.96-1.018-1.338-1.6-1.076-1.687.727-.291 2.007-.204 3.084.233zm21.702.407c.465.524.436.669-.611 2.764-1.018 2.095-1.135 2.211-2.065 2.211-1.28 0-2.385-1.105-2.385-2.385 0-.931.116-1.047 2.124-2.036 1.135-.582 2.182-1.076 2.269-1.076.087-.029.407.204.669.524zm-5.062 5.12.698.756-5.207 5.207-5.207 5.236-.815-.785-.844-.785 5.178-5.178C21.672 8.727 24.057 6.4 24.174 6.4c.087 0 .465.32.844.727zm.32 13.237c1.513 0 2.124.145 2.909.669 1.833 1.222 2.909 3.549 2.473 5.324l-.204.756-1.571-1.484c-1.804-1.687-2.967-1.949-4.131-.844-1.164 1.076-.931 2.327.815 4.16l1.484 1.571-.756.204c-1.775.436-4.102-.64-5.324-2.473-.524-.785-.669-1.396-.669-2.909v-1.92l-2.182-2.182c-2.211-2.211-2.211-2.211-1.6-2.764.582-.524.611-.524 1.978.815 1.105 1.076 1.455 1.309 1.745 1.018s.058-.64-1.018-1.745c-1.338-1.367-1.338-1.396-.815-1.978.553-.611.553-.611 2.764 1.6l2.182 2.182h1.92zm-11.753-1.979c1.92 1.891 2.182 2.589 1.338 3.491-.465.524-.582.465-2.909-1.862-2.269-2.24-2.356-2.415-1.92-2.909.815-.902 1.571-.611 3.491 1.28z"/><path d="M10.385 26.385c-.116.087-.204.349-.204.582 0 .436.756.524.989.116.204-.32-.524-.96-.785-.698z"/></symbol>
<symbol id="icon-security" viewBox="0 0 32 32"><path d="M11.429.269c-.296.108-.834.538-1.21.941-.619.645-.672.968-.78 3.442-.081 2.34-.161 2.77-.592 3.092-.457.323-.511.645-.457 2.017.081 1.533.134 1.694.941 2.205.484.296.861.672.887.807 0 .161.296.726.672 1.264.807 1.21.914 2.635.188 2.635-.269 0-.618-.134-.753-.269-.161-.161-1.103-.269-2.151-.215-1.802.081-1.855.108-2.097.914-.134.457-.645 1.076-1.156 1.398-1.156.78-2.366 2.447-2.904 4.061-.323.995-.403 2.205-.35 5.297l.081 4.007 3.818.081c5.029.081 4.921.188 4.921-4.222 0-3.119-.027-3.227-.672-3.738-.565-.457-.672-.753-.672-2.044 0-1.156-.081-1.506-.403-1.506s-.403.35-.403 1.479c0 1.479 0 1.479-.807 1.479h-.834l.081-3.146.081-3.173 3.092-.161v1.371c0 2.044.565 3.066 3.227 5.782l2.42 2.447v4.679H13.58c-1.613 0-2.017.081-2.017.403 0 .35 1.156.403 9.358.35l9.331-.081.081-4.061c.054-3.603 0-4.276-.484-5.593-.35-.941-.726-1.506-.995-1.506-.43 0-.43.134.296 2.017.215.592.403 1.963.43 3.012v1.963h-3.496v-8.901l.726.565c.511.403.78.484.995.269.269-.296-.188-.86-1.291-1.56-.161-.108-.43-.565-.565-.995-.269-.78-.35-.807-2.124-.887-1.049-.054-1.99.054-2.151.215-.134.134-.484.269-.753.269-.726 0-.619-1.425.188-2.635.376-.538.672-1.129.672-1.318s.296-.403.672-.511c.968-.242 1.479-1.103 1.479-2.474 0-1.318-.376-2.205-.914-2.205-.296 0-.403-.645-.484-2.824-.081-2.77-.108-2.824-.968-3.684l-.861-.887h-3.012c-2.017 0-3.012.108-3.092.323s.753.323 2.877.403c2.904.081 3.039.108 3.657.834.457.511.645 1.076.645 1.829v1.049h-2.017c-1.936 0-2.017-.027-1.694-.538.511-.834-.027-1.936-1.156-2.366-.834-.323-1.103-.296-1.936.054-1.103.457-1.56 1.506-1.022 2.366.269.457.188.484-1.721.484h-2.017V3.523c0-1.345.807-2.366 2.017-2.608.538-.081.941-.323.941-.538 0-.403-.887-.484-1.748-.108zm5.916 2.689c.188.592-.108 1.264-.887 1.963-.511.457-.538.457-1.237-.35-.753-.914-.78-1.049-.538-1.721.108-.296.511-.43 1.318-.43.941 0 1.21.108 1.345.538zm-2.286 2.824c.188.215.618.403.941.403s.753-.188.941-.403c.242-.296.914-.403 2.608-.403h2.259l-.081 1.667-.081 1.694-.807-.081c-.43-.054-1.425-.403-2.178-.753-.86-.403-1.855-.645-2.662-.645s-1.802.242-2.662.645c-.753.35-1.721.699-2.178.753l-.807.081-.081-1.694-.081-1.667h2.259c1.694 0 2.366.108 2.608.403zm3.442 2.957c.699.376 1.587.672 1.99.672.726 0 .753.054.753 1.264 0 1.802-.834 3.281-2.716 4.894-2.205 1.855-2.85 1.855-5.055 0-1.882-1.613-2.716-3.092-2.716-4.894 0-1.21.027-1.264.753-1.264.403 0 1.264-.296 1.936-.672 1.64-.887 3.388-.887 5.055 0zM9.95 10.434c0 1.56-.672.861-.726-.78-.081-1.398-.054-1.425.323-.78.215.376.376 1.076.403 1.56zm13.176-.78c0 .672-.188 1.183-.538 1.506-.538.484-.538.457-.538-.484 0-1.103.511-2.393.834-2.178.134.081.242.592.242 1.156zM16 17.748c.887 0 1.398-.215 2.393-.941l1.237-.968v.968c0 2.313-1.318 3.63-3.63 3.63s-3.63-1.318-3.63-3.63v-.968l1.237.968c.995.726 1.506.941 2.393.941zm9.143 6.319v6.992l-4.356.081-4.383.054v-4.787l2.286-2.232c2.635-2.555 3.361-3.845 3.361-5.862v-1.398l3.092.161v6.992zm-13.365-5.566c.161.565.672 1.371 1.129 1.802.807.753.968.807 3.092.807s2.286-.054 3.092-.807c.457-.43.968-1.237 1.129-1.802.376-1.291 1.022-1.371 1.022-.108 0 1.56-.484 2.366-2.904 4.787l-2.34 2.366-2.232-2.232c-2.393-2.34-3.012-3.334-3.012-4.894 0-1.291.645-1.237 1.022.081zm-5.862 2.608c0 1.748-.081 2.286-.376 2.286-.188 0-.672.242-1.076.565-.619.484-.699.753-.699 2.151 0 1.533-.027 1.587-.699 1.587h-.699l.108-2.366c.134-2.662.672-4.007 2.259-5.54.565-.538 1.049-.968 1.103-.968.027 0 .081 1.022.081 2.286zm3.711 6.427c.054 1.909-.027 3.039-.242 3.281-.403.484-4.034.511-4.491.054-.35-.35-.457-5.889-.134-6.239.108-.108 1.237-.134 2.501-.108l2.286.081.081 2.931zm-5.862 2.313c0 1.264-.054 1.345-.672 1.345s-.672-.081-.672-1.345.054-1.345.672-1.345.672.081.672 1.345zm25.815 0v1.345h-3.496v-2.689h3.496v1.345z"/><path d="M12.908 10.084c0 .215.242.403.538.403s.538-.188.538-.403c0-.215-.242-.403-.538-.403s-.538.188-.538.403zM18.017 10.084c0 .215.242.403.538.403s.538-.188.538-.403c0-.215-.242-.403-.538-.403s-.538.188-.538.403zM14.521 13.849c0 .323.35.403 1.479.403s1.479-.081 1.479-.403c0-.323-.35-.403-1.479-.403s-1.479.081-1.479.403zM18.635 26.541c-.457.161-.457 2.555-.027 2.985.215.215 1.237.323 2.77.323s2.555-.108 2.77-.323c.43-.43.43-2.42 0-2.85-.323-.323-4.813-.43-5.513-.134zm4.76 1.56v.941h-4.303V27.16h4.303v.941zM5.701 26.003c.108.565.887.672.887.081 0-.215-.215-.43-.484-.484-.376-.081-.484.027-.403.403zM5.835 27.886c-.457.43-.081.619 1.156.619 1.022 0 1.345-.108 1.345-.403s-.296-.403-1.156-.403c-.645 0-1.264.081-1.345.188zM5.782 29.849c-.323.511.269.86 1.371.753.726-.054 1.049-.215 1.049-.484 0-.511-2.124-.726-2.42-.269z"/></symbol>
<symbol id="icon-calendar" viewBox="0 0 32 32"><path d="M6.4.38c-.222.222-.38.697-.38 1.109 0 .665-.158.729-1.552.729-1.331 0-1.679.127-2.218.824-.634.824-.665 1.172-.665 14.131v13.275l.792.76.76.792h25.727l.76-.792.792-.76V17.173c0-12.958-.032-13.307-.665-14.131-.539-.697-.887-.824-2.218-.824-1.394 0-1.552-.063-1.552-.729C25.981.57 25.411 0 24.555 0s-1.426.57-1.426 1.489v.729H8.872v-.729C8.872.57 8.302 0 7.446 0c-.38 0-.824.158-1.046.38zm1.521 1.204c0 .349-.222.634-.475.634s-.475-.285-.475-.634c0-.349.222-.634.475-.634s.475.285.475.634zm17.109 0c0 .349-.222.634-.475.634s-.475-.285-.475-.634c0-.349.222-.634.475-.634s.475.285.475.634zM6.02 4.087c0 .887.697 1.933 1.267 1.933s.697-.729.19-1.014c-.285-.158-.507-.634-.507-1.046v-.792h16.158v1.109c0 .76.19 1.172.602 1.426.824.412.982.412.982-.158 0-.253-.127-.475-.317-.475-.158 0-.317-.444-.317-.95v-.95h2.313c1.362 0 2.471.158 2.693.38s.38 1.362.38 2.852v2.471l-10.202.063c-6.558.063-10.234.222-10.234.412s3.675.348 10.234.412l10.202.063v6.337c0 7.319.158 6.97-3.263 6.97-2.566 0-2.852.285-3.073 3.453l-.158 2.408-9.79.095c-6.939.063-9.917-.032-10.202-.285-.349-.285-.444-2.186-.444-9.663V9.823h2.693c2.186 0 2.693-.095 2.693-.475s-.507-.475-2.693-.475H2.534V6.402c0-1.489.158-2.63.38-2.852s.982-.38 1.743-.38c1.299 0 1.362.032 1.362.919zm20.594 22.052-2.376 2.408-.095-1.489c-.19-2.756-.032-2.947 2.408-3.073 1.172-.063 2.186-.127 2.281-.158.063-.032-.919 1.014-2.218 2.313zm2.503 4.467c-.285.38-2.566.444-13.085.444-12.356 0-13.497-.063-13.497-.919 0-.127 4.784-.158 10.646-.095l10.646.095 2.725-2.693 2.756-2.693.095 2.693c.063 1.743-.032 2.883-.285 3.168z"/><path d="M4.657 11.945c-.38.348-.253 3.105.158 3.517.222.222.95.38 1.679.38 1.616 0 2.059-.412 2.059-1.933 0-1.964-.19-2.186-2.028-2.186-.919 0-1.774.095-1.869.222zm2.947 1.837c0 1.046-.063 1.109-1.109 1.109s-1.109-.063-1.109-1.109.063-1.109 1.109-1.109 1.109.063 1.109 1.109zM10.994 11.913c-.38.38-.253 3.137.158 3.549.539.539 2.947.475 3.39-.063.222-.253.348-1.141.285-1.996l-.095-1.521-1.743-.095c-.982-.063-1.869 0-1.996.127zm2.947 1.869c0 1.046-.063 1.109-1.109 1.109s-1.109-.063-1.109-1.109.063-1.109 1.109-1.109 1.109.063 1.109 1.109zM17.331 11.913c-.38.38-.253 3.137.158 3.549.539.539 2.947.475 3.39-.063.222-.253.349-1.141.285-1.996l-.095-1.521-1.743-.095c-.982-.063-1.869 0-1.996.127zm2.946 1.869c0 1.046-.063 1.109-1.109 1.109s-1.109-.063-1.109-1.109.063-1.109 1.109-1.109 1.109.063 1.109 1.109zM23.636 12.198c-.317.887-.222 2.851.19 3.263.539.539 2.947.475 3.39-.063.222-.253.349-1.141.285-1.996l-.095-1.521-1.774-.095c-1.426-.063-1.838 0-1.996.412zm2.978 1.584c0 1.046-.063 1.109-1.109 1.109s-1.109-.063-1.109-1.109.063-1.109 1.109-1.109 1.109.063 1.109 1.109zM4.562 17.869c-.095.222-.127 1.109-.063 1.964l.095 1.552 1.521.095c.855.063 1.743-.063 1.996-.285.539-.444.602-2.852.063-3.39s-3.39-.507-3.612.063zm3.042 1.616c0 1.046-.063 1.109-1.109 1.109s-1.109-.063-1.109-1.109.063-1.109 1.109-1.109 1.109.063 1.109 1.109zM10.994 17.648c-.127.095-.222.951-.222 1.869 0 1.838.222 2.028 2.186 2.028 1.521 0 1.933-.444 1.933-2.059 0-.729-.158-1.457-.38-1.679-.412-.412-3.168-.539-3.517-.158zm2.947 1.837c0 1.046-.063 1.109-1.109 1.109s-1.109-.063-1.109-1.109.063-1.109 1.109-1.109 1.109.063 1.109 1.109zM17.489 17.806c-.475.475-.507 2.852 0 3.358.444.444 2.725.507 3.358.095.285-.158.38-.792.317-1.964l-.095-1.711-1.584-.095c-.951-.063-1.743.063-1.996.317zm2.788 1.679c0 1.046-.063 1.109-1.109 1.109s-1.109-.063-1.109-1.109.063-1.109 1.109-1.109 1.109.063 1.109 1.109zM23.572 18.154c-.095.253-.127 1.077-.063 1.838l.095 1.394h3.802v-3.485l-1.838-.095c-1.362-.063-1.869.032-1.996.349zm3.042 1.331c0 1.046-.063 1.109-1.109 1.109s-1.109-.063-1.109-1.109.063-1.109 1.109-1.109 1.109.063 1.109 1.109zM4.784 23.572c-.222.253-.348 1.141-.285 1.996l.095 1.521 1.711.095c1.172.063 1.806-.032 1.964-.317.412-.634.348-2.915-.095-3.358-.539-.539-2.947-.475-3.39.063zm2.82 1.616c0 1.046-.063 1.109-1.109 1.109s-1.109-.063-1.109-1.109.063-1.109 1.109-1.109 1.109.063 1.109 1.109zM11.121 23.572c-.222.253-.348 1.141-.285 1.996l.095 1.521h3.802l.095-1.521c.127-1.933-.285-2.44-1.996-2.44-.792 0-1.521.19-1.711.444zm2.82 1.616c0 1.046-.063 1.109-1.109 1.109s-1.109-.063-1.109-1.109.063-1.109 1.109-1.109 1.109.063 1.109 1.109zM17.489 23.509c-.475.475-.507 1.426-.032 1.679.19.127.412-.063.507-.444.127-.507.412-.665 1.236-.665 1.014 0 1.077.063 1.077 1.141v1.172l-1.616-.19c-1.394-.158-1.584-.127-1.489.349.095.444.475.539 1.996.539h1.901l.095-1.521c.063-.855-.063-1.743-.285-1.996-.444-.539-2.852-.602-3.39-.063z"/></symbol>

<symbol id="icon-mail" viewBox="0 0 32 32"><path d="M2.256 4.1A3.072 3.072 0 0 0 .093 6.294c-.144.537-.144 18.875 0 19.413a3.059 3.059 0 0 0 2.188 2.2c.325.081 1.931.094 13.719.094 14.563 0 13.65.025 14.387-.35.444-.225.994-.769 1.231-1.206.406-.762.381-.156.381-10.444 0-8.194-.012-9.394-.094-9.719a3.06 3.06 0 0 0-2.2-2.188c-.531-.138-26.931-.131-27.45.006zm27.038 1.95c.044.025-2.425 2.212-6.594 5.819-6.425 5.575-6.669 5.775-6.806 5.688-.075-.05-3.094-2.65-6.7-5.775-4.025-3.494-6.525-5.706-6.481-5.731.094-.063 26.481-.063 26.581 0zm-13.65 13.881c.238.1.669.063.869-.075.081-.05 3.144-2.694 6.819-5.881l6.669-5.781-.012 8.588c-.019 8.563-.019 8.587-.15 8.756a1.704 1.704 0 0 1-.3.3l-.169.131H2.632l-.169-.131a1.704 1.704 0 0 1-.3-.3c-.131-.169-.131-.194-.15-8.762l-.012-8.588 6.719 5.831c3.7 3.2 6.813 5.863 6.925 5.912z"/></symbol>

<symbol id="icon-phone" viewBox="0 0 32 32"><path d="M4.95.188c-.756.2-1.156.456-1.956 1.25C1.688 2.738.875 4.225.35 6.288c-1.175 4.638.588 9.113 5.919 15.025 1.162 1.288 3.281 3.381 4.325 4.275 3.569 3.056 7.231 5.063 10.813 5.913 2.769.663 4.925.519 6.938-.462.381-.188.869-.475 1.094-.65.494-.375 1.394-1.306 1.775-1.85.869-1.219 1.019-2.575.406-3.806-.169-.337-.556-.75-2.887-3.081-2.881-2.869-2.919-2.9-3.762-3.131-.475-.131-1.363-.113-1.844.038-.688.212-1.087.506-2.188 1.606-.569.563-1.063 1.025-1.1 1.025-.106 0-1.581-.881-2.337-1.4-2.631-1.806-4.506-3.875-6.287-6.944l-.325-.563 1.044-1.063c1.45-1.475 1.681-1.881 1.738-3.075.031-.525.012-.7-.094-1.063-.256-.838-.419-1.019-3.225-3.819C7.465.388 7.428.357 6.472.157 5.897.038 5.509.044 4.953.188zm1.269 1.943c.213.056.638.456 2.738 2.544 1.475 1.469 2.544 2.581 2.619 2.731.081.15.131.375.131.563.006.606-.069.719-1.394 2.062-.681.688-1.281 1.344-1.344 1.463-.137.275-.188.787-.1 1.106.081.306 1.019 1.956 1.637 2.881 2.013 3.012 4.412 5.206 7.825 7.162 1.25.719 1.656.8 2.313.475.15-.075.775-.637 1.45-1.306.656-.644 1.275-1.219 1.375-1.269a1.39 1.39 0 0 1 .981-.106c.325.075.394.137 2.819 2.556 1.369 1.363 2.544 2.581 2.613 2.706.25.481.119 1.137-.35 1.769-.95 1.269-1.863 1.881-3.387 2.262-.919.231-2.275.244-3.456.025-4.744-.881-9.506-3.913-14.331-9.119-3.463-3.731-5.237-6.438-6.006-9.15-.863-3.019-.025-6.631 2.006-8.637.725-.719 1.194-.9 1.862-.719zM19.238 3c-.469.144-.794.638-.719 1.1.038.237.288.606.481.713.063.031.394.112.731.181 1.756.344 3.375 1.225 4.744 2.594 1.381 1.381 2.319 3.106 2.613 4.806.113.637.212.856.481 1.05.563.4 1.425.037 1.531-.644.056-.319-.137-1.306-.413-2.125-1.094-3.281-3.712-5.981-6.95-7.181-.95-.35-2.181-.594-2.5-.494zM18.137 7.231a.981.981 0 0 0-.519.638c-.163.537.262 1.144.863 1.231.775.113 1.856.644 2.669 1.313.919.756 1.706 2.063 1.95 3.237.05.238.15.519.225.619.144.2.55.412.794.419.262 0 .681-.244.831-.488.45-.731-.3-2.769-1.631-4.412-.887-1.1-2.581-2.181-3.981-2.537-.581-.15-.925-.156-1.2-.019z"/></symbol>
</defs>
</svg>