<svg xmlns="http://www.w3.org/2000/svg" aria-hidden="true" style="position:absolute;width:0;height:0;overflow:hidden">
<defs>
<symbol id="icon-logo" viewBox="0 0 32 32">
<path d="M10.137 9.063c-3.102 2.54-5.765 4.861-5.936 5.105-.44.611 0 1.466.757 1.466.318 0 1.686-.953 3.347-2.369 1.539-1.27 3.933-3.273 5.325-4.397l2.492-2.076 5.521 4.421c3.029 2.443 5.716 4.421 5.96 4.421.44 0 .977-.66.977-1.197 0-.342-12.116-10.04-12.531-10.04-.171 0-2.834 2.101-5.911 4.666z"/><path d="M11.432 13.362c-.244.073-.635.708-.953 1.563-.611 1.686-.831 1.905-1.05 1.075-.122-.44-.318-.611-.782-.611-1.148 0-.977 1.099.244 1.539.171.073.073.464-.269 1.099-.464.806-.562 1.392-.562 3.053 0 1.515.098 2.15.342 2.369.195.147.391.733.44 1.295l.073 1.026h2.198l.073-1.026.073-1.05h9.722l.073 1.05.073 1.026h2.198l.073-.977c.049-.537.244-1.075.44-1.173.269-.147.342-.757.342-2.565 0-1.979-.098-2.467-.489-2.98-.635-.831-.611-1.148.147-1.319.879-.22.733-1.221-.195-1.319-.537-.073-.708.049-.831.562-.195.806-.366.611-1.05-1.148-.391-.928-.708-1.417-1.075-1.514-.611-.171-8.623-.147-9.258.024zm9.38 2.149c.22.66.342 1.295.269 1.392-.049.122-2.296.195-4.983.195-5.472 0-5.227.098-4.47-1.881l.415-1.05 4.177.049 4.177.073.415 1.221zm-8.989 4.349c.489.415.66.708.562 1.002-.147.342-.415.391-1.563.342-1.27-.073-1.417-.122-1.49-.635-.049-.318-.024-.733.049-.928.22-.537 1.637-.415 2.443.22zm11.017.415v.855l-1.49.073c-1.857.098-2.198-.342-1.002-1.295.562-.44 1.026-.611 1.637-.562.806.073.855.122.855.928z"/>
</symbol>
</defs>
</svg>