<svg xmlns="http://www.w3.org/2000/svg" aria-hidden="true" style="position:absolute;width:0;height:0;overflow:hidden"><defs><symbol id="icon-mail" viewBox="0 0 32 32"><path d="M2.256 4.1A3.072 3.072 0 0 0 .093 6.294c-.144.537-.144 18.875 0 19.413a3.059 3.059 0 0 0 2.188 2.2c.325.081 1.931.094 13.719.094 14.563 0 13.65.025 14.387-.35.444-.225.994-.769 1.231-1.206.406-.762.381-.156.381-10.444 0-8.194-.012-9.394-.094-9.719a3.06 3.06 0 0 0-2.2-2.188c-.531-.138-26.931-.131-27.45.006zm27.038 1.95c.044.025-2.425 2.212-6.594 5.819-6.425 5.575-6.669 5.775-6.806 5.688-.075-.05-3.094-2.65-6.7-5.775-4.025-3.494-6.525-5.706-6.481-5.731.094-.063 26.481-.063 26.581 0zm-13.65 13.881c.238.1.669.063.869-.075.081-.05 3.144-2.694 6.819-5.881l6.669-5.781-.012 8.588c-.019 8.563-.019 8.587-.15 8.756a1.704 1.704 0 0 1-.3.3l-.169.131H2.632l-.169-.131a1.704 1.704 0 0 1-.3-.3c-.131-.169-.131-.194-.15-8.762l-.012-8.588 6.719 5.831c3.7 3.2 6.813 5.863 6.925 5.912z"/></symbol><symbol id="icon-phone" viewBox="0 0 32 32"><path d="M4.95.188c-.756.2-1.156.456-1.956 1.25C1.688 2.738.875 4.225.35 6.288c-1.175 4.638.588 9.113 5.919 15.025 1.162 1.288 3.281 3.381 4.325 4.275 3.569 3.056 7.231 5.063 10.813 5.913 2.769.663 4.925.519 6.938-.462.381-.188.869-.475 1.094-.65.494-.375 1.394-1.306 1.775-1.85.869-1.219 1.019-2.575.406-3.806-.169-.337-.556-.75-2.887-3.081-2.881-2.869-2.919-2.9-3.762-3.131-.475-.131-1.363-.113-1.844.038-.688.212-1.087.506-2.188 1.606-.569.563-1.063 1.025-1.1 1.025-.106 0-1.581-.881-2.337-1.4-2.631-1.806-4.506-3.875-6.287-6.944l-.325-.563 1.044-1.063c1.45-1.475 1.681-1.881 1.738-3.075.031-.525.012-.7-.094-1.063-.256-.838-.419-1.019-3.225-3.819C7.465.388 7.428.357 6.472.157 5.897.038 5.509.044 4.953.188zm1.269 1.943c.213.056.638.456 2.738 2.544 1.475 1.469 2.544 2.581 2.619 2.731.081.15.131.375.131.563.006.606-.069.719-1.394 2.062-.681.688-1.281 1.344-1.344 1.463-.137.275-.188.787-.1 1.106.081.306 1.019 1.956 1.637 2.881 2.013 3.012 4.412 5.206 7.825 7.162 1.25.719 1.656.8 2.313.475.15-.075.775-.637 1.45-1.306.656-.644 1.275-1.219 1.375-1.269a1.39 1.39 0 0 1 .981-.106c.325.075.394.137 2.819 2.556 1.369 1.363 2.544 2.581 2.613 2.706.25.481.119 1.137-.35 1.769-.95 1.269-1.863 1.881-3.387 2.262-.919.231-2.275.244-3.456.025-4.744-.881-9.506-3.913-14.331-9.119-3.463-3.731-5.237-6.438-6.006-9.15-.863-3.019-.025-6.631 2.006-8.637.725-.719 1.194-.9 1.862-.719zM19.238 3c-.469.144-.794.638-.719 1.1.038.237.288.606.481.713.063.031.394.112.731.181 1.756.344 3.375 1.225 4.744 2.594 1.381 1.381 2.319 3.106 2.613 4.806.113.637.212.856.481 1.05.563.4 1.425.037 1.531-.644.056-.319-.137-1.306-.413-2.125-1.094-3.281-3.712-5.981-6.95-7.181-.95-.35-2.181-.594-2.5-.494zM18.137 7.231a.981.981 0 0 0-.519.638c-.163.537.262 1.144.863 1.231.775.113 1.856.644 2.669 1.313.919.756 1.706 2.063 1.95 3.237.05.238.15.519.225.619.144.2.55.412.794.419.262 0 .681-.244.831-.488.45-.731-.3-2.769-1.631-4.412-.887-1.1-2.581-2.181-3.981-2.537-.581-.15-.925-.156-1.2-.019z"/></symbol></defs></svg>