<!-- Generated by IcoMoon.io -->
<svg version="1.1" xmlns="http://www.w3.org/2000/svg" width="32" height="32" viewBox="0 0 32 32">
<title>mail</title>
<path d="M2.256 4.1c-1.056 0.281-1.881 1.125-2.163 2.194-0.144 0.537-0.144 18.875 0 19.413 0.281 1.081 1.113 1.919 2.188 2.2 0.325 0.081 1.931 0.094 13.719 0.094 14.563 0 13.65 0.025 14.387-0.35 0.444-0.225 0.994-0.769 1.231-1.206 0.406-0.762 0.381-0.156 0.381-10.444 0-8.194-0.012-9.394-0.094-9.719-0.281-1.075-1.119-1.906-2.2-2.188-0.531-0.138-26.931-0.131-27.45 0.006zM29.294 6.050c0.044 0.025-2.425 2.212-6.594 5.819-6.425 5.575-6.669 5.775-6.806 5.688-0.075-0.050-3.094-2.65-6.7-5.775-4.025-3.494-6.525-5.706-6.481-5.731 0.094-0.063 26.481-0.063 26.581 0zM15.644 19.931c0.238 0.1 0.669 0.063 0.869-0.075 0.081-0.050 3.144-2.694 6.819-5.881l6.669-5.781-0.012 8.588c-0.019 8.563-0.019 8.587-0.15 8.756-0.069 0.094-0.206 0.231-0.3 0.3l-0.169 0.131h-26.738l-0.169-0.131c-0.094-0.069-0.231-0.206-0.3-0.3-0.131-0.169-0.131-0.194-0.15-8.762l-0.012-8.588 6.719 5.831c3.7 3.2 6.813 5.863 6.925 5.912z"></path>
</svg>
