<!-- Generated by IcoMoon.io -->
<svg version="1.1" xmlns="http://www.w3.org/2000/svg" width="32" height="32" viewBox="0 0 32 32">
<title>phone</title>
<path d="M4.95 0.188c-0.756 0.2-1.156 0.456-1.956 1.25-1.306 1.3-2.119 2.787-2.644 4.85-1.175 4.638 0.588 9.113 5.919 15.025 1.162 1.288 3.281 3.381 4.325 4.275 3.569 3.056 7.231 5.063 10.813 5.913 2.769 0.663 4.925 0.519 6.938-0.462 0.381-0.188 0.869-0.475 1.094-0.65 0.494-0.375 1.394-1.306 1.775-1.85 0.869-1.219 1.019-2.575 0.406-3.806-0.169-0.337-0.556-0.75-2.887-3.081-2.881-2.869-2.919-2.9-3.762-3.131-0.475-0.131-1.363-0.113-1.844 0.038-0.688 0.212-1.087 0.506-2.188 1.606-0.569 0.563-1.063 1.025-1.1 1.025-0.106 0-1.581-0.881-2.337-1.4-2.631-1.806-4.506-3.875-6.287-6.944l-0.325-0.563 1.044-1.063c1.45-1.475 1.681-1.881 1.738-3.075 0.031-0.525 0.012-0.7-0.094-1.063-0.256-0.838-0.419-1.019-3.225-3.819-2.888-2.875-2.925-2.906-3.881-3.106-0.575-0.119-0.963-0.113-1.519 0.031zM6.219 2.131c0.213 0.056 0.638 0.456 2.738 2.544 1.475 1.469 2.544 2.581 2.619 2.731 0.081 0.15 0.131 0.375 0.131 0.563 0.006 0.606-0.069 0.719-1.394 2.062-0.681 0.688-1.281 1.344-1.344 1.463-0.137 0.275-0.188 0.787-0.1 1.106 0.081 0.306 1.019 1.956 1.637 2.881 2.013 3.012 4.412 5.206 7.825 7.162 1.25 0.719 1.656 0.8 2.313 0.475 0.15-0.075 0.775-0.637 1.45-1.306 0.656-0.644 1.275-1.219 1.375-1.269 0.306-0.156 0.631-0.188 0.981-0.106 0.325 0.075 0.394 0.137 2.819 2.556 1.369 1.363 2.544 2.581 2.613 2.706 0.25 0.481 0.119 1.137-0.35 1.769-0.95 1.269-1.863 1.881-3.387 2.262-0.919 0.231-2.275 0.244-3.456 0.025-4.744-0.881-9.506-3.913-14.331-9.119-3.463-3.731-5.237-6.438-6.006-9.15-0.863-3.019-0.025-6.631 2.006-8.637 0.725-0.719 1.194-0.9 1.862-0.719z"></path>
<path d="M19.238 3c-0.469 0.144-0.794 0.638-0.719 1.1 0.038 0.237 0.288 0.606 0.481 0.713 0.063 0.031 0.394 0.112 0.731 0.181 1.756 0.344 3.375 1.225 4.744 2.594 1.381 1.381 2.319 3.106 2.613 4.806 0.113 0.637 0.212 0.856 0.481 1.050 0.563 0.4 1.425 0.037 1.531-0.644 0.056-0.319-0.137-1.306-0.413-2.125-1.094-3.281-3.712-5.981-6.95-7.181-0.95-0.35-2.181-0.594-2.5-0.494z"></path>
<path d="M18.137 7.231c-0.256 0.125-0.431 0.338-0.519 0.638-0.163 0.537 0.262 1.144 0.863 1.231 0.775 0.113 1.856 0.644 2.669 1.313 0.919 0.756 1.706 2.063 1.95 3.237 0.050 0.238 0.15 0.519 0.225 0.619 0.144 0.2 0.55 0.412 0.794 0.419 0.262 0 0.681-0.244 0.831-0.488 0.45-0.731-0.3-2.769-1.631-4.412-0.887-1.1-2.581-2.181-3.981-2.537-0.581-0.15-0.925-0.156-1.2-0.019z"></path>
</svg>
